<svg xmlns="http://www.w3.org/2000/svg" xmlns:xlink="http://www.w3.org/1999/xlink" width="200" zoomAndPan="magnify" viewBox="0 0 150 34.499999" height="46" preserveAspectRatio="xMidYMid meet" version="1.2"><defs><clipPath id="1e1a0eb91c"><path d="M 135 2 L 148 2 L 148 15 L 135 15 Z M 135 2 "/></clipPath><clipPath id="ff78488459"><path d="M 135.914062 6.25 L 143.753906 -1.59375 L 152.121094 6.769531 L 144.277344 14.613281 Z M 135.914062 6.25 "/></clipPath><clipPath id="3adb22045f"><path d="M 135.914062 6.25 L 143.753906 -1.59375 L 152.121094 6.769531 L 144.277344 14.613281 Z M 135.914062 6.25 "/></clipPath><clipPath id="3fea9cc98d"><path d="M 1.070312 3 L 27 3 L 27 31 L 1.070312 31 Z M 1.070312 3 "/></clipPath><clipPath id="680a32afb1"><path d="M 9.617188 5.9375 L 22.988281 5.9375 L 22.988281 28.453125 L 9.617188 28.453125 Z M 9.617188 5.9375 "/></clipPath><clipPath id="6c400e7841"><path d="M 16.300781 5.9375 C 12.609375 5.9375 9.617188 10.976562 9.617188 17.1875 C 9.617188 23.398438 12.609375 28.433594 16.300781 28.433594 C 19.996094 28.433594 22.988281 23.398438 22.988281 17.1875 C 22.988281 10.976562 19.996094 5.9375 16.300781 5.9375 Z M 16.300781 5.9375 "/></clipPath><clipPath id="cad1969d79"><path d="M 4.679688 8.378906 L 22 8.378906 L 22 25 L 4.679688 25 Z M 4.679688 8.378906 "/></clipPath><clipPath id="f5ba990484"><path d="M 12 16 L 22.230469 16 L 22.230469 25.929688 L 12 25.929688 Z M 12 16 "/></clipPath></defs><g id="8cabae4b5c"><g style="fill:#ffffff;fill-opacity:1;"><g transform="translate(27.201737, 26.949432)"><path style="stroke:none" d="M 2.125 -15.9375 L 6.75 -15.9375 L 6.75 0 L 2.125 0 Z M 4.4375 -18.15625 C 3.59375 -18.15625 2.90625 -18.398438 2.375 -18.890625 C 1.84375 -19.378906 1.578125 -19.992188 1.578125 -20.734375 C 1.578125 -21.460938 1.84375 -22.070312 2.375 -22.5625 C 2.90625 -23.050781 3.59375 -23.296875 4.4375 -23.296875 C 5.289062 -23.296875 5.984375 -23.054688 6.515625 -22.578125 C 7.046875 -22.109375 7.3125 -21.519531 7.3125 -20.8125 C 7.3125 -20.039062 7.046875 -19.40625 6.515625 -18.90625 C 5.984375 -18.40625 5.289062 -18.15625 4.4375 -18.15625 Z M 4.4375 -18.15625 "/></g></g><g style="fill:#ffffff;fill-opacity:1;"><g transform="translate(34.041551, 26.949432)"><path style="stroke:none" d="M 18.5625 -15.9375 L 18.5625 -2.671875 C 18.5625 0.253906 17.800781 2.425781 16.28125 3.84375 C 14.757812 5.269531 12.539062 5.984375 9.625 5.984375 C 8.082031 5.984375 6.617188 5.796875 5.234375 5.421875 C 3.859375 5.046875 2.71875 4.503906 1.8125 3.796875 L 3.640625 0.46875 C 4.316406 1.019531 5.164062 1.457031 6.1875 1.78125 C 7.21875 2.113281 8.242188 2.28125 9.265625 2.28125 C 10.867188 2.28125 12.050781 1.921875 12.8125 1.203125 C 13.570312 0.484375 13.953125 -0.609375 13.953125 -2.078125 L 13.953125 -2.75 C 12.742188 -1.425781 11.0625 -0.765625 8.90625 -0.765625 C 7.445312 -0.765625 6.109375 -1.082031 4.890625 -1.71875 C 3.679688 -2.363281 2.722656 -3.269531 2.015625 -4.4375 C 1.304688 -5.601562 0.953125 -6.945312 0.953125 -8.46875 C 0.953125 -9.988281 1.304688 -11.328125 2.015625 -12.484375 C 2.722656 -13.648438 3.679688 -14.554688 4.890625 -15.203125 C 6.109375 -15.847656 7.445312 -16.171875 8.90625 -16.171875 C 11.21875 -16.171875 12.976562 -15.410156 14.1875 -13.890625 L 14.1875 -15.9375 Z M 9.828125 -4.5625 C 11.054688 -4.5625 12.054688 -4.921875 12.828125 -5.640625 C 13.609375 -6.359375 14 -7.300781 14 -8.46875 C 14 -9.632812 13.609375 -10.578125 12.828125 -11.296875 C 12.054688 -12.015625 11.054688 -12.375 9.828125 -12.375 C 8.609375 -12.375 7.601562 -12.015625 6.8125 -11.296875 C 6.019531 -10.578125 5.625 -9.632812 5.625 -8.46875 C 5.625 -7.300781 6.019531 -6.359375 6.8125 -5.640625 C 7.601562 -4.921875 8.609375 -4.5625 9.828125 -4.5625 Z M 9.828125 -4.5625 "/></g></g><g style="fill:#ffffff;fill-opacity:1;"><g transform="translate(52.695898, 26.949432)"><path style="stroke:none" d="M 2.125 -15.9375 L 6.75 -15.9375 L 6.75 0 L 2.125 0 Z M 4.4375 -18.15625 C 3.59375 -18.15625 2.90625 -18.398438 2.375 -18.890625 C 1.84375 -19.378906 1.578125 -19.992188 1.578125 -20.734375 C 1.578125 -21.460938 1.84375 -22.070312 2.375 -22.5625 C 2.90625 -23.050781 3.59375 -23.296875 4.4375 -23.296875 C 5.289062 -23.296875 5.984375 -23.054688 6.515625 -22.578125 C 7.046875 -22.109375 7.3125 -21.519531 7.3125 -20.8125 C 7.3125 -20.039062 7.046875 -19.40625 6.515625 -18.90625 C 5.984375 -18.40625 5.289062 -18.15625 4.4375 -18.15625 Z M 4.4375 -18.15625 "/></g></g><g style="fill:#ffffff;fill-opacity:1;"><g transform="translate(59.535712, 26.949432)"><path style="stroke:none" d="M 12.40625 -0.765625 C 11.945312 -0.429688 11.382812 -0.179688 10.71875 -0.015625 C 10.0625 0.148438 9.367188 0.234375 8.640625 0.234375 C 6.742188 0.234375 5.273438 -0.25 4.234375 -1.21875 C 3.203125 -2.1875 2.6875 -3.609375 2.6875 -5.484375 L 2.6875 -12.015625 L 0.234375 -12.015625 L 0.234375 -15.578125 L 2.6875 -15.578125 L 2.6875 -19.453125 L 7.3125 -19.453125 L 7.3125 -15.578125 L 11.28125 -15.578125 L 11.28125 -12.015625 L 7.3125 -12.015625 L 7.3125 -5.53125 C 7.3125 -4.863281 7.484375 -4.347656 7.828125 -3.984375 C 8.171875 -3.617188 8.660156 -3.4375 9.296875 -3.4375 C 10.023438 -3.4375 10.644531 -3.632812 11.15625 -4.03125 Z M 12.40625 -0.765625 "/></g></g><g style="fill:#ffffff;fill-opacity:1;"><g transform="translate(70.343312, 26.949432)"><path style="stroke:none" d="M 9.71875 0.234375 C 8.03125 0.234375 6.519531 -0.113281 5.1875 -0.8125 C 3.863281 -1.507812 2.828125 -2.476562 2.078125 -3.71875 C 1.328125 -4.96875 0.953125 -6.382812 0.953125 -7.96875 C 0.953125 -9.539062 1.328125 -10.945312 2.078125 -12.1875 C 2.828125 -13.4375 3.863281 -14.410156 5.1875 -15.109375 C 6.519531 -15.816406 8.03125 -16.171875 9.71875 -16.171875 C 11.394531 -16.171875 12.894531 -15.816406 14.21875 -15.109375 C 15.539062 -14.410156 16.578125 -13.4375 17.328125 -12.1875 C 18.078125 -10.945312 18.453125 -9.539062 18.453125 -7.96875 C 18.453125 -6.382812 18.078125 -4.96875 17.328125 -3.71875 C 16.578125 -2.476562 15.539062 -1.507812 14.21875 -0.8125 C 12.894531 -0.113281 11.394531 0.234375 9.71875 0.234375 Z M 9.71875 -3.546875 C 10.894531 -3.546875 11.863281 -3.945312 12.625 -4.75 C 13.382812 -5.550781 13.765625 -6.625 13.765625 -7.96875 C 13.765625 -9.3125 13.382812 -10.378906 12.625 -11.171875 C 11.863281 -11.972656 10.894531 -12.375 9.71875 -12.375 C 8.53125 -12.375 7.550781 -11.972656 6.78125 -11.171875 C 6.007812 -10.378906 5.625 -9.3125 5.625 -7.96875 C 5.625 -6.625 6.007812 -5.550781 6.78125 -4.75 C 7.550781 -3.945312 8.53125 -3.546875 9.71875 -3.546875 Z M 9.71875 -3.546875 "/></g></g><g style="fill:#ffffff;fill-opacity:1;"><g transform="translate(87.665191, 26.949432)"><path style="stroke:none" d="M 17.9375 -15.9375 L 10.75 0.984375 C 10.019531 2.816406 9.113281 4.109375 8.03125 4.859375 C 6.957031 5.609375 5.660156 5.984375 4.140625 5.984375 C 3.316406 5.984375 2.5 5.851562 1.6875 5.59375 C 0.875 5.34375 0.210938 4.988281 -0.296875 4.53125 L 1.390625 1.25 C 1.742188 1.5625 2.148438 1.804688 2.609375 1.984375 C 3.078125 2.160156 3.539062 2.25 4 2.25 C 4.625 2.25 5.132812 2.09375 5.53125 1.78125 C 5.925781 1.476562 6.285156 0.972656 6.609375 0.265625 L 6.65625 0.125 L -0.234375 -15.9375 L 4.53125 -15.9375 L 9 -5.125 L 13.5 -15.9375 Z M 17.9375 -15.9375 "/></g></g><g style="fill:#ffffff;fill-opacity:1;"><g transform="translate(103.299277, 26.949432)"><path style="stroke:none" d="M 9.71875 0.234375 C 8.03125 0.234375 6.519531 -0.113281 5.1875 -0.8125 C 3.863281 -1.507812 2.828125 -2.476562 2.078125 -3.71875 C 1.328125 -4.96875 0.953125 -6.382812 0.953125 -7.96875 C 0.953125 -9.539062 1.328125 -10.945312 2.078125 -12.1875 C 2.828125 -13.4375 3.863281 -14.410156 5.1875 -15.109375 C 6.519531 -15.816406 8.03125 -16.171875 9.71875 -16.171875 C 11.394531 -16.171875 12.894531 -15.816406 14.21875 -15.109375 C 15.539062 -14.410156 16.578125 -13.4375 17.328125 -12.1875 C 18.078125 -10.945312 18.453125 -9.539062 18.453125 -7.96875 C 18.453125 -6.382812 18.078125 -4.96875 17.328125 -3.71875 C 16.578125 -2.476562 15.539062 -1.507812 14.21875 -0.8125 C 12.894531 -0.113281 11.394531 0.234375 9.71875 0.234375 Z M 9.71875 -3.546875 C 10.894531 -3.546875 11.863281 -3.945312 12.625 -4.75 C 13.382812 -5.550781 13.765625 -6.625 13.765625 -7.96875 C 13.765625 -9.3125 13.382812 -10.378906 12.625 -11.171875 C 11.863281 -11.972656 10.894531 -12.375 9.71875 -12.375 C 8.53125 -12.375 7.550781 -11.972656 6.78125 -11.171875 C 6.007812 -10.378906 5.625 -9.3125 5.625 -7.96875 C 5.625 -6.625 6.007812 -5.550781 6.78125 -4.75 C 7.550781 -3.945312 8.53125 -3.546875 9.71875 -3.546875 Z M 9.71875 -3.546875 "/></g></g><g style="fill:#ffffff;fill-opacity:1;"><g transform="translate(120.621156, 26.949432)"><path style="stroke:none" d="M 18.1875 -15.9375 L 18.1875 0 L 13.796875 0 L 13.796875 -1.890625 C 13.179688 -1.203125 12.445312 -0.675781 11.59375 -0.3125 C 10.75 0.0507812 9.835938 0.234375 8.859375 0.234375 C 6.765625 0.234375 5.101562 -0.363281 3.875 -1.5625 C 2.65625 -2.769531 2.046875 -4.554688 2.046875 -6.921875 L 2.046875 -15.9375 L 6.65625 -15.9375 L 6.65625 -7.609375 C 6.65625 -5.046875 7.734375 -3.765625 9.890625 -3.765625 C 10.992188 -3.765625 11.878906 -4.125 12.546875 -4.84375 C 13.222656 -5.5625 13.5625 -6.628906 13.5625 -8.046875 L 13.5625 -15.9375 Z M 18.1875 -15.9375 "/></g></g><g clip-rule="nonzero" clip-path="url(#1e1a0eb91c)"><g clip-rule="nonzero" clip-path="url(#ff78488459)"><g clip-rule="nonzero" clip-path="url(#3adb22045f)"><path style=" stroke:none;fill-rule:nonzero;fill:#4a90e2;fill-opacity:1;" d="M 135.914062 6.246094 L 141.492188 8.6875 L 144.277344 14.609375 L 147.292969 2.726562 L 135.914062 6.246094 "/></g></g></g><g clip-rule="nonzero" clip-path="url(#3fea9cc98d)"><g style="fill:#ffffff;fill-opacity:1;"><g transform="translate(1.071431, 30.16573)"><path style="stroke:none" d="M 0.375 0 L 0.375 -26.46875 L 12.9375 -26.46875 C 15.070312 -26.46875 16.941406 -26.09375 18.546875 -25.34375 C 20.148438 -24.601562 21.484375 -23.601562 22.546875 -22.34375 C 23.617188 -21.082031 24.421875 -19.664062 24.953125 -18.09375 C 25.484375 -16.519531 25.75 -14.898438 25.75 -13.234375 C 25.75 -11.566406 25.484375 -9.945312 24.953125 -8.375 C 24.421875 -6.800781 23.617188 -5.382812 22.546875 -4.125 C 21.484375 -2.863281 20.148438 -1.859375 18.546875 -1.109375 C 16.941406 -0.367188 15.070312 0 12.9375 0 Z M 13.125 -10.25 C 13.800781 -10.25 14.34375 -10.457031 14.75 -10.875 C 15.15625 -11.289062 15.425781 -11.789062 15.5625 -12.375 C 15.695312 -12.96875 15.695312 -13.566406 15.5625 -14.171875 C 15.425781 -14.785156 15.15625 -15.296875 14.75 -15.703125 C 14.34375 -16.117188 13.800781 -16.328125 13.125 -16.328125 L 10.171875 -16.328125 L 10.171875 -10.25 Z M 13.125 -10.25 "/></g></g></g><g clip-rule="nonzero" clip-path="url(#680a32afb1)"><g clip-rule="nonzero" clip-path="url(#6c400e7841)"><path style=" stroke:none;fill-rule:nonzero;fill:#ffffff;fill-opacity:1;" d="M 9.617188 5.9375 L 22.988281 5.9375 L 22.988281 28.453125 L 9.617188 28.453125 Z M 9.617188 5.9375 "/></g></g><g clip-rule="nonzero" clip-path="url(#cad1969d79)"><path style=" stroke:none;fill-rule:nonzero;fill:#4a90e2;fill-opacity:1;" d="M 21.25 16.664062 C 21.25 16.839844 21.246094 17.015625 21.234375 17.1875 L 19.554688 16.738281 L 19.378906 16.691406 C 19.378906 16.683594 19.378906 16.671875 19.378906 16.664062 C 19.378906 13.125 16.507812 10.253906 12.964844 10.253906 C 9.421875 10.253906 6.550781 13.125 6.550781 16.664062 C 6.550781 20.207031 9.421875 23.078125 12.964844 23.078125 L 13.023438 23.078125 L 13.519531 24.933594 C 13.335938 24.945312 13.152344 24.949219 12.964844 24.949219 C 8.386719 24.949219 4.679688 21.242188 4.679688 16.664062 C 4.679688 12.089844 8.390625 8.378906 12.964844 8.378906 C 17.542969 8.378906 21.25 12.089844 21.25 16.664062 Z M 21.25 16.664062 "/></g><path style=" stroke:none;fill-rule:nonzero;fill:#4a90e2;fill-opacity:1;" d="M 17.488281 16.183594 L 14.621094 15.417969 C 14.441406 15.175781 14.214844 14.980469 13.949219 14.839844 C 13.683594 14.695312 13.398438 14.613281 13.097656 14.59375 C 12.796875 14.574219 12.503906 14.621094 12.21875 14.730469 C 11.9375 14.835938 11.691406 15 11.480469 15.214844 C 11.269531 15.433594 11.113281 15.683594 11.011719 15.96875 C 10.910156 16.253906 10.871094 16.546875 10.898438 16.847656 C 10.925781 17.148438 11.011719 17.429688 11.164062 17.695312 C 11.3125 17.957031 11.511719 18.175781 11.757812 18.351562 L 12.519531 21.191406 C 10.214844 20.96875 8.417969 19.027344 8.417969 16.664062 C 8.417969 14.152344 10.453125 12.117188 12.964844 12.117188 C 15.3125 12.117188 17.246094 13.898438 17.488281 16.183594 Z M 17.488281 16.183594 "/><g clip-rule="nonzero" clip-path="url(#f5ba990484)"><path style=" stroke:none;fill-rule:nonzero;fill:#4a90e2;fill-opacity:1;" d="M 21.769531 19.382812 L 20.5625 19.980469 L 17.882812 21.304688 C 17.769531 21.359375 17.683594 21.441406 17.628906 21.554688 L 16.296875 24.253906 L 15.710938 25.441406 C 15.480469 25.902344 14.804688 25.835938 14.671875 25.339844 L 14.527344 24.804688 L 14.042969 22.988281 L 13.582031 21.277344 L 13.554688 21.175781 L 12.902344 18.738281 L 12.363281 16.71875 C 12.25 16.304688 12.628906 15.925781 13.046875 16.035156 L 15.039062 16.570312 L 17.480469 17.222656 L 17.605469 17.257812 L 19.292969 17.710938 L 21.109375 18.195312 L 21.667969 18.347656 C 22.164062 18.480469 22.230469 19.15625 21.769531 19.382812 Z M 21.769531 19.382812 "/><path style=" stroke:none;fill-rule:nonzero;fill:#4a90e2;fill-opacity:1;" d="M 21.769531 19.382812 L 20.5625 19.980469 L 17.882812 21.304688 C 17.769531 21.359375 17.683594 21.441406 17.628906 21.554688 L 16.296875 24.253906 L 15.710938 25.441406 C 15.480469 25.902344 14.804688 25.835938 14.671875 25.339844 L 14.527344 24.804688 L 14.042969 22.988281 L 13.582031 21.277344 L 13.554688 21.175781 L 12.902344 18.738281 L 12.363281 16.71875 C 12.25 16.304688 12.628906 15.925781 13.046875 16.035156 L 15.039062 16.570312 L 17.480469 17.222656 L 17.605469 17.257812 L 19.292969 17.710938 L 21.109375 18.195312 L 21.667969 18.347656 C 22.164062 18.480469 22.230469 19.15625 21.769531 19.382812 Z M 21.769531 19.382812 "/></g></g></svg>