<svg xmlns="http://www.w3.org/2000/svg" width="200" viewBox="0 0 150 34.5" height="46" version="1.2"><defs><clipPath id="a"><path d="M135 2h13v13h-13zm0 0"/></clipPath><clipPath id="b"><path d="M135.914 6.25l7.84-7.844 8.367 8.364-7.844 7.843zm0 0"/></clipPath><clipPath id="c"><path d="M135.914 6.25l7.84-7.844 8.367 8.364-7.844 7.843zm0 0"/></clipPath><clipPath id="d"><path d="M1.07 3H27v28H1.07zm0 0"/></clipPath><clipPath id="e"><path d="M9.617 5.938h13.371v22.515H9.618zm0 0"/></clipPath><clipPath id="f"><path d="M16.3 5.938c-3.69 0-6.683 5.039-6.683 11.25 0 6.21 2.992 11.246 6.684 11.246 3.695 0 6.687-5.036 6.687-11.247 0-6.21-2.992-11.25-6.687-11.25zm0 0"/></clipPath><clipPath id="g"><path d="M4.68 8.379H22V25H4.68zm0 0"/></clipPath><clipPath id="h"><path d="M12 16h10.23v9.93H12zm0 0"/></clipPath></defs><path d="M29.327 11.012h4.625v15.937h-4.625zm2.312-2.219c-.844 0-1.531-.242-2.062-.734-.532-.488-.797-1.102-.797-1.844 0-.727.265-1.336.797-1.828.531-.488 1.218-.734 2.062-.734.852 0 1.547.242 2.078.718.532.47.797 1.059.797 1.766 0 .773-.265 1.406-.797 1.906-.53.5-1.226.75-2.078.75zm20.965 2.219v13.266c0 2.925-.762 5.097-2.281 6.515-1.524 1.426-3.742 2.14-6.656 2.14a16.72 16.72 0 01-4.391-.562c-1.375-.375-2.516-.918-3.422-1.625l1.828-3.328c.676.551 1.524.988 2.547 1.313a9.99 9.99 0 003.078.5c1.602 0 2.785-.36 3.547-1.078.758-.72 1.14-1.813 1.14-3.282V24.2c-1.21 1.325-2.89 1.985-5.046 1.985-1.461 0-2.797-.317-4.016-.953a7.32 7.32 0 01-2.875-2.72c-.71-1.163-1.062-2.507-1.062-4.03 0-1.52.351-2.86 1.062-4.016a7.375 7.375 0 012.875-2.719c1.219-.644 2.555-.968 4.016-.968 2.312 0 4.07.761 5.281 2.28v-2.046zM43.87 22.387c1.226 0 2.226-.36 3-1.078.78-.719 1.172-1.66 1.172-2.828 0-1.164-.391-2.11-1.172-2.828-.774-.72-1.774-1.079-3-1.079-1.22 0-2.227.36-3.016 1.079-.793.718-1.187 1.664-1.187 2.828 0 1.168.394 2.11 1.187 2.828.79.719 1.797 1.078 3.016 1.078zm10.95-11.375h4.626v15.937H54.82zm2.313-2.219c-.843 0-1.53-.242-2.062-.734-.531-.488-.797-1.102-.797-1.844 0-.727.266-1.336.797-1.828.531-.488 1.219-.734 2.062-.734.852 0 1.547.242 2.079.718.53.47.796 1.059.796 1.766 0 .773-.265 1.406-.796 1.906-.532.5-1.227.75-2.079.75zm14.809 17.391c-.461.336-1.023.586-1.688.75a8.555 8.555 0 01-2.078.25c-1.898 0-3.367-.485-4.406-1.453-1.031-.97-1.547-2.39-1.547-4.266v-6.531H59.77V11.37h2.453V7.496h4.625v3.875h3.969v3.563h-3.969v6.484c0 .668.172 1.184.516 1.547.344.367.832.547 1.469.547.726 0 1.347-.195 1.859-.594zm0 0" fill="#fff"/><path d="M80.062 27.184c-1.687 0-3.2-.348-4.531-1.047-1.324-.695-2.36-1.664-3.11-2.906-.75-1.25-1.125-2.664-1.125-4.25 0-1.57.375-2.977 1.125-4.22.75-1.25 1.786-2.222 3.11-2.92 1.332-.708 2.844-1.063 4.531-1.063 1.676 0 3.176.355 4.5 1.062 1.32.7 2.36 1.672 3.11 2.922.75 1.242 1.124 2.648 1.124 4.219 0 1.586-.375 3-1.125 4.25-.75 1.242-1.789 2.21-3.109 2.906-1.324.7-2.824 1.047-4.5 1.047zm0-3.781c1.176 0 2.145-.399 2.906-1.204.758-.8 1.14-1.875 1.14-3.218 0-1.344-.382-2.41-1.14-3.203-.761-.801-1.73-1.204-2.906-1.204-1.187 0-2.168.403-2.937 1.204-.774.793-1.157 1.859-1.157 3.203 0 1.343.383 2.418 1.157 3.218.77.805 1.75 1.204 2.937 1.204zm0 0" fill="#fff"/><path d="M105.603 11.012l-7.188 16.922c-.73 1.832-1.637 3.125-2.719 3.875-1.074.75-2.37 1.125-3.89 1.125-.824 0-1.64-.133-2.453-.39-.813-.25-1.477-.606-1.985-1.063l1.688-3.282c.351.313.758.555 1.219.735.468.176.93.265 1.39.265.625 0 1.133-.156 1.531-.468.395-.305.754-.809 1.079-1.516l.046-.14-6.89-16.063h4.765l4.47 10.812 4.5-10.812zm7.415 16.172c-1.687 0-3.2-.348-4.531-1.047-1.324-.695-2.36-1.664-3.11-2.906-.75-1.25-1.125-2.664-1.125-4.25 0-1.57.375-2.977 1.125-4.22.75-1.25 1.786-2.222 3.11-2.92 1.332-.708 2.844-1.063 4.531-1.063 1.676 0 3.176.355 4.5 1.062 1.32.7 2.36 1.672 3.11 2.922.75 1.242 1.124 2.648 1.124 4.219 0 1.586-.375 3-1.125 4.25-.75 1.242-1.789 2.21-3.109 2.906-1.324.7-2.824 1.047-4.5 1.047zm0-3.781c1.176 0 2.145-.399 2.906-1.204.758-.8 1.14-1.875 1.14-3.218 0-1.344-.382-2.41-1.14-3.203-.761-.801-1.73-1.204-2.906-1.204-1.187 0-2.168.403-2.937 1.204-.774.793-1.157 1.859-1.157 3.203 0 1.343.383 2.418 1.157 3.218.77.805 1.75 1.204 2.937 1.204zm25.791-12.391v15.937h-4.391v-1.89a6.194 6.194 0 01-2.203 1.578 6.85 6.85 0 01-2.734.547c-2.094 0-3.758-.598-4.985-1.797-1.219-1.207-1.828-2.992-1.828-5.36v-9.015h4.61v8.328c0 2.563 1.078 3.844 3.234 3.844 1.101 0 1.988-.36 2.656-1.078.676-.72 1.016-1.785 1.016-3.203v-7.891zm0 0" fill="#fff"/><g clip-path="url(#a)"><g clip-path="url(#b)"><g clip-path="url(#c)"><path d="M135.914 6.246l5.578 2.441 2.785 5.922 3.016-11.882-11.379 3.52" fill="#4a90e2"/></g></g></g><g clip-path="url(#d)"><path d="M1.446 30.166V3.697H14.01c2.133 0 4.004.375 5.61 1.125 1.6.742 2.937 1.742 4 3a12.917 12.917 0 012.406 4.25c.53 1.574.796 3.195.796 4.86a15.08 15.08 0 01-.796 4.859 12.839 12.839 0 01-2.407 4.25c-1.062 1.261-2.398 2.265-4 3.015-1.605.743-3.476 1.11-5.61 1.11zm12.75-10.25c.676 0 1.22-.207 1.625-.625.407-.414.676-.914.813-1.5a4.102 4.102 0 000-1.797c-.137-.613-.406-1.125-.813-1.531-.406-.414-.949-.625-1.625-.625h-2.953v6.078zm0 0" fill="#fff"/></g><g clip-path="url(#e)"><g clip-path="url(#f)"><path d="M9.617 5.938h13.371v22.515H9.618zm0 0" fill="#fff"/></g></g><g clip-path="url(#g)"><path d="M21.25 16.664c0 .176-.004.352-.016.523l-1.68-.449-.175-.047v-.027a6.412 6.412 0 00-6.414-6.41 6.412 6.412 0 100 12.824h.058l.497 1.856a8.683 8.683 0 01-.555.015 8.282 8.282 0 01-8.285-8.285 8.285 8.285 0 1116.57 0zm0 0" fill="#4a90e2"/></g><path d="M17.488 16.184l-2.867-.766a1.993 1.993 0 00-.672-.578 2.041 2.041 0 00-1.73-.11c-.281.106-.528.27-.739.485a2.077 2.077 0 00-.582 1.633 2.064 2.064 0 00.86 1.504l.762 2.84a4.545 4.545 0 01-4.102-4.528 4.546 4.546 0 014.547-4.547 4.552 4.552 0 014.523 4.067zm0 0" fill="#4a90e2"/><g clip-path="url(#h)" fill="#4a90e2"><path d="M21.77 19.383l-1.207.597-2.68 1.325a.526.526 0 00-.254.25l-1.332 2.699-.586 1.187a.558.558 0 01-1.04-.101l-.144-.535-.484-1.817-.461-1.71-.027-.102-.653-2.438-.539-2.02a.558.558 0 01.684-.683l1.992.535 2.441.653.125.035 1.688.453 1.816.484.559.153a.555.555 0 01.102 1.035zm0 0"/><path d="M21.77 19.383l-1.207.597-2.68 1.325a.526.526 0 00-.254.25l-1.332 2.699-.586 1.187a.558.558 0 01-1.04-.101l-.144-.535-.484-1.817-.461-1.71-.027-.102-.653-2.438-.539-2.02a.558.558 0 01.684-.683l1.992.535 2.441.653.125.035 1.688.453 1.816.484.559.153a.555.555 0 01.102 1.035zm0 0"/></g></svg>